<svg viewBox="0 0 222 30" fill="none" xmlns="http://www.w3.org/2000/svg" class="block h-8"><g clip-path="url(#d997clip0_53154_4338)"><path d="M14.6582 0.0661119C11.7058 0.339487 8.87935 1.6574 6.75126 3.6865C4.62206 5.7145 3.18058 8.44621 2.75975 11.3199C2.64748 12.0363 2.60992 12.761 2.61705 13.4801C2.62258 14.1994 2.68625 14.917 2.81826 15.6199C2.9452 16.3232 3.13149 17.013 3.36955 17.68C3.61446 18.345 3.90729 18.9888 4.25745 19.5964C4.12932 19.2696 4.00997 18.9408 3.90267 18.6088C3.79881 18.2756 3.70326 17.9409 3.62617 17.6021C3.46601 16.9267 3.35504 16.2423 3.30546 15.5555C3.25603 14.8691 3.24799 14.1818 3.30401 13.5006C3.35691 12.82 3.45128 12.1441 3.61461 11.4862C4.22254 8.84358 5.68973 6.45867 7.6868 4.73278C8.18484 4.29944 8.72025 3.91267 9.27783 3.56697C9.8361 3.22254 10.4158 2.91317 11.0213 2.66672C11.6249 2.4163 12.2471 2.21719 12.8785 2.05965C13.3495 1.94598 13.8272 1.86438 14.3075 1.80915C8.88363 2.72335 4.74942 7.47875 4.74942 13.2088C4.74942 19.5928 9.88065 24.7681 16.2104 24.7681C22.5401 24.7681 27.6712 19.5928 27.6712 13.2088C27.6712 11.6139 27.3508 10.0943 26.7717 8.71207C26.8983 8.97652 27.0165 9.24508 27.1227 9.51887C28.0955 11.9474 28.2528 14.7098 27.5962 17.2742C27.4273 17.9138 27.2233 18.5479 26.9536 19.1559C26.6871 19.7651 26.372 20.3536 26.0172 20.9195C25.6642 21.487 25.2527 22.0171 24.811 22.5216C24.3679 23.025 23.8863 23.4975 23.3663 23.927C22.3292 24.7885 21.1505 25.4933 19.8788 25.9924C18.6103 26.5034 17.2491 26.7937 15.8605 26.902C16.5557 26.9494 17.257 26.9318 17.9575 26.8666C18.658 26.7972 19.3516 26.6526 20.0356 26.4649C20.7201 26.2777 21.3891 26.0234 22.0329 25.7122C22.6775 25.4028 23.3003 25.0413 23.8937 24.6316C25.0711 23.8002 26.1242 22.7728 26.9824 21.5896C27.8391 20.4067 28.5148 19.0773 28.944 17.6631C29.3858 16.2522 29.5775 14.7613 29.5412 13.2772C29.5185 12.5346 29.4423 11.792 29.303 11.0595C29.1604 10.3278 28.9568 9.60801 28.7012 8.90705C28.6336 8.73334 28.5738 8.55607 28.4989 8.38512L28.2739 7.87262L28.0247 7.37142C27.9435 7.2032 27.8454 7.04442 27.7562 6.88046C27.386 6.23281 26.9654 5.61421 26.4993 5.03162C26.0271 4.45433 25.5084 3.91616 24.9523 3.42039C24.3966 2.92448 23.802 2.47132 23.1705 2.0766C22.5392 1.68202 21.8775 1.33731 21.193 1.04629C20.5069 0.758897 19.7973 0.529312 19.0746 0.358243C18.8931 0.319677 18.7134 0.271704 18.5302 0.241437L17.9817 0.14673C17.6137 0.100354 17.246 0.050355 16.8758 0.0318045C16.558 0.0114409 16.2395 0 15.9212 0C15.4993 0 15.0778 0.0200845 14.6582 0.0661119ZM19.5019 3.80772C19.5378 3.79014 19.5662 3.74697 19.5862 3.67934C19.65 3.46356 19.7359 3.33592 19.8567 3.27771C19.9644 3.22581 20.0947 3.23278 20.2554 3.29925C20.5375 3.41586 20.8249 3.47744 21.1341 3.48761C21.2726 3.49222 21.3606 3.55574 21.4285 3.69996C21.546 3.94978 21.7238 4.11952 21.9571 4.20438C22.1787 4.28499 22.4151 4.37427 22.6424 4.48056C22.7097 4.512 22.753 4.58236 22.791 4.64444C22.8 4.65915 22.8089 4.67365 22.8178 4.68719C22.8525 4.73955 22.8852 4.79367 22.9168 4.84604C22.9515 4.90343 22.9872 4.96264 23.025 5.01838C23.035 5.03301 23.0625 5.04954 23.0889 5.05666C23.5351 5.17577 23.8082 5.50291 24.0724 5.81925C24.1139 5.86896 24.1555 5.9187 24.1978 5.96786C24.351 6.14576 24.5265 6.31133 24.6962 6.47137C24.8115 6.58009 24.9307 6.6925 25.0428 6.80856C25.1178 6.88639 25.1679 6.98514 25.2163 7.08059C25.2267 7.10105 25.237 7.12148 25.2476 7.14148C25.2952 7.23186 25.3393 7.3253 25.382 7.41563C25.4091 7.47295 25.4361 7.5302 25.4641 7.5869C25.4801 7.61925 25.4978 7.65049 25.5167 7.68362C25.5497 7.74213 25.5841 7.8026 25.6074 7.86858C25.7313 8.21908 25.8874 8.47802 26.0986 8.68368C26.1618 8.74527 26.2087 8.84442 26.2422 8.98691C26.2918 9.19884 26.3344 9.41216 26.3793 9.63798C26.3973 9.72823 26.4157 9.82056 26.4351 9.91574C26.4406 9.94281 26.4268 9.97006 26.4015 9.98117C26.3764 9.99233 26.3469 9.98429 26.3309 9.96176C26.3144 9.93863 26.2999 9.9177 26.2862 9.89816C26.2599 9.86038 26.237 9.82767 26.2132 9.79782C26.2006 9.78178 26.1881 9.7647 26.1758 9.74762C26.1441 9.70361 26.1141 9.66203 26.0787 9.6421C26.0386 9.61948 25.9676 9.61767 25.9435 9.6329C25.9273 9.64398 25.9037 9.71224 25.911 9.75208C25.986 10.157 26.0691 10.5676 26.1497 10.9647L26.1964 11.1955C26.2161 11.2929 26.2373 11.39 26.2586 11.4871C26.2682 11.5315 26.2781 11.5759 26.2876 11.6204C26.2931 11.6457 26.281 11.6719 26.2584 11.6843L26.2105 11.7103C26.1827 11.7256 26.1473 11.715 26.132 11.687C26.0753 11.5842 26.0131 11.4806 25.9528 11.3805C25.8144 11.1503 25.6714 10.9122 25.5792 10.6571C25.4273 10.2372 25.1158 10.0206 24.7239 10.0632C24.7208 10.0632 24.7173 10.0641 24.7139 10.0646C24.6905 10.0681 24.6556 10.0734 24.6268 10.0513C24.4633 9.92586 24.2755 9.93877 24.0766 9.95244C24.0417 9.95479 24.007 9.95724 23.9726 9.95883C23.6524 9.97376 23.3946 9.83526 23.1452 9.7013C23.0725 9.6623 22.9973 9.62179 22.9222 9.58631C22.8704 9.56182 22.8093 9.55165 22.7446 9.54091C22.7299 9.53846 22.7148 9.53596 22.6997 9.53323L22.7051 9.543C22.8059 9.72815 22.9068 9.91331 23.0077 10.0984C23.1763 10.1408 23.2723 10.26 23.3653 10.3754C23.4056 10.4255 23.4437 10.4726 23.4871 10.5134C23.6383 10.6549 23.6989 10.6529 23.8914 10.4991C23.9141 10.4811 23.9464 10.4824 23.9676 10.5023C24.0023 10.5348 24.0427 10.5653 24.0853 10.6001C24.1511 10.6539 24.235 10.7615 24.2695 10.8395C24.3475 11.0151 24.3723 11.178 24.2877 11.3964C24.2706 11.4406 24.255 11.4843 24.2396 11.5274C24.1585 11.754 24.0821 11.9681 23.8419 12.1263C23.5667 12.3076 23.4052 12.2018 23.3182 12.0813C23.2059 11.9255 23.0958 11.7647 22.9893 11.6091C22.9231 11.5125 22.8569 11.4158 22.7899 11.3199C22.7803 11.3061 22.7708 11.2913 22.7613 11.2764C22.7344 11.2344 22.7068 11.1912 22.6766 11.1763C22.4256 11.0523 22.2812 10.8369 22.1415 10.6286C22.1142 10.5879 22.0869 10.5471 22.0588 10.507C21.9866 10.4042 21.9147 10.3078 21.8276 10.2595C21.7569 10.2202 21.6266 10.2145 21.5981 10.2405C21.5554 10.2797 21.5308 10.4051 21.5487 10.4937C21.5937 10.7165 21.7015 10.843 21.8884 10.8918C21.99 10.9183 22.1013 11.0091 22.1472 11.1028C22.2331 11.2779 22.3603 11.4192 22.4949 11.5689C22.6573 11.7492 22.8251 11.9356 22.916 12.1871C22.992 12.3977 23.143 12.5593 23.3411 12.6419C23.5566 12.732 23.8114 12.7219 24.0398 12.6143C24.0996 12.5862 24.22 12.5511 24.292 12.5986C24.3645 12.6464 24.3674 12.7887 24.3529 12.8507C24.2453 13.31 24.129 13.799 23.9956 14.2835C23.9748 14.3588 23.9284 14.4217 23.8835 14.4826C23.8525 14.5246 23.8232 14.5642 23.8034 14.606L23.7847 14.6452C23.7328 14.7531 23.6792 14.8647 23.6751 14.9698C23.6742 14.9899 23.6736 15.0099 23.6729 15.0299C23.666 15.2424 23.6588 15.4621 23.4876 15.6461C23.4715 15.6634 23.4586 15.7005 23.4576 15.7323C23.4547 15.8314 23.4504 15.9307 23.4461 16.0299C23.4342 16.3004 23.422 16.58 23.44 16.8514C23.46 17.1533 23.3758 17.4059 23.1823 17.6239C22.9885 17.8423 22.8788 18.0602 22.8366 18.3097C22.8146 18.441 22.6887 18.5768 22.5797 18.6323C22.4448 18.7011 22.3946 18.7765 22.3947 18.9105C22.3947 19.1296 22.3759 19.378 22.15 19.5516C22.1114 19.5813 22.0753 19.6447 22.0681 19.6958C22.0153 20.0705 21.743 20.2535 21.4922 20.3957C21.432 20.4296 21.3787 20.4893 21.3272 20.5469C21.3132 20.5625 21.2993 20.5781 21.2853 20.5932C21.2542 20.6266 21.2257 20.6626 21.1954 20.7006C21.148 20.7603 21.099 20.8221 21.0393 20.8737C20.7778 21.0988 20.5084 21.3229 20.2477 21.5397C20.1523 21.6191 20.0567 21.6986 19.9614 21.7783C19.9458 21.7914 19.9298 21.804 19.9063 21.8227L19.8564 21.8624C19.8459 21.8706 19.8332 21.875 19.8202 21.875C19.8136 21.875 19.8069 21.8738 19.8004 21.8715C19.7815 21.8646 19.7675 21.8483 19.7633 21.8283C19.7439 21.7337 19.7128 21.6416 19.6828 21.5527C19.6084 21.3323 19.5314 21.1044 19.63 20.832C19.6855 20.6788 19.6934 20.4656 19.6518 20.2471C19.5806 19.8737 19.5934 19.5087 19.6176 19.1699C19.627 19.0387 19.6249 18.9033 19.6229 18.7724C19.6212 18.6671 19.6196 18.5581 19.6237 18.4505C19.6281 18.3372 19.6382 18.209 19.7023 18.1188C19.8558 17.9032 19.8354 17.6861 19.7528 17.4055C19.6907 17.1952 19.7007 17.0142 19.7839 16.8358C19.8148 16.7696 19.8201 16.6666 19.7961 16.596C19.7243 16.3848 19.6379 16.1737 19.5544 15.9695C19.5296 15.9093 19.505 15.849 19.4806 15.7886C19.459 15.7349 19.4374 15.6813 19.416 15.6275C19.3357 15.4272 19.2527 15.22 19.1641 15.0199C19.0681 14.8034 18.9616 14.5728 18.8338 14.3531C18.8209 14.3315 18.7283 14.3008 18.6768 14.3121C18.2469 14.4073 17.8198 14.5121 17.4074 14.6236C17.3158 14.6484 17.2281 14.6847 17.1352 14.7229C17.0556 14.7557 16.9734 14.7896 16.8888 14.8154C16.5948 14.9051 16.4852 14.8656 16.3026 14.6038C16.2421 14.517 16.1884 14.4567 16.1335 14.4142C15.8309 14.1789 15.6552 13.8508 15.6114 13.4389C15.6046 13.3755 15.5972 13.3116 15.5898 13.2477C15.5515 12.9162 15.5118 12.5734 15.5576 12.2447C15.5985 11.9512 15.7037 11.6651 15.8054 11.3884C15.848 11.2724 15.8921 11.1523 15.9305 11.0343C15.9477 10.9814 15.9717 10.9488 16.0035 10.9345C16.1433 10.8718 16.2045 10.7462 16.2695 10.6132C16.3064 10.5375 16.3446 10.4592 16.3985 10.3907C16.4705 10.2992 16.569 10.1738 16.6894 10.1483C16.9143 10.1004 17.0149 9.93136 17.1216 9.75235C17.1358 9.72835 17.15 9.7045 17.1645 9.681C17.2798 9.49391 17.4283 9.38224 17.6461 9.31886C17.7385 9.29201 17.8275 9.23253 17.9102 9.17219C18.0509 9.06947 18.189 9.06458 18.3327 9.15734C18.567 9.30867 18.7777 9.39396 19.0154 9.43386C19.1544 9.45714 19.2731 9.55589 19.3881 9.65152C19.4547 9.70681 19.5235 9.76408 19.5936 9.8039C19.6904 9.85891 19.8202 9.87396 19.9227 9.88088C20.0886 9.89211 20.2663 9.89107 20.4658 9.87766C20.7717 9.8571 21.1202 9.8064 21.3863 9.58631C21.4194 9.55896 21.4291 9.36585 21.3802 9.29291C21.2809 9.14499 21.1325 9.02164 20.9889 8.90246L20.9474 8.86792C20.8363 8.77517 20.7049 8.68584 20.5341 8.58681C20.5232 8.58054 20.5115 8.57524 20.499 8.57062C20.4676 8.55912 20.4345 8.55327 20.4012 8.55047L20.0148 8.51727C20.0234 8.52838 20.035 8.54072 20.0447 8.55089C20.0814 8.59001 20.1272 8.63856 20.1163 8.706C20.1069 8.76374 20.0597 8.81241 19.9632 8.86381C19.9362 8.87819 19.9027 8.86904 19.8865 8.8431C19.8588 8.79902 19.8305 8.75482 19.802 8.71039C19.7363 8.60786 19.6684 8.5018 19.6058 8.39328C19.5382 8.2764 19.3652 8.18134 19.2032 8.23177C19.0505 8.27933 18.912 8.3396 18.7916 8.41073C18.5427 8.55788 18.2139 8.48067 18.0738 8.24209C18.0185 8.14787 17.96 8.12883 17.8506 8.16915C17.6168 8.25555 17.4517 8.41762 17.3313 8.67942C17.2244 8.91158 17.1018 9.11593 16.956 9.30406C16.9413 9.32318 16.9163 9.33099 16.8934 9.3241C16.8703 9.31705 16.854 9.29648 16.8523 9.27233L16.7928 8.46086C16.7907 8.43136 16.8129 8.40396 16.8417 8.39858C16.9758 8.37349 17.0297 8.28644 17.0066 8.1326C16.9994 8.08525 17.0255 8.0455 17.0485 8.01042C17.0587 7.99502 17.0692 7.97898 17.0738 7.96656C17.0817 7.94501 17.0913 7.92277 17.1012 7.90044C17.1236 7.84904 17.1469 7.79613 17.1407 7.75971C17.1325 7.71166 17.1253 7.66319 17.1182 7.61459C17.0789 7.34658 17.0418 7.09329 16.8237 6.90967C16.7445 6.843 16.6749 6.75652 16.6276 6.66595C16.5922 6.59801 16.5557 6.46398 16.6088 6.39354C16.6607 6.32491 16.8144 6.29129 16.8876 6.33265C17.0176 6.40609 17.1235 6.50038 17.1858 6.59816C17.3007 6.77843 17.3045 6.77752 17.5101 6.72801C17.6151 6.70262 17.7233 6.69515 17.8281 6.68791C17.9227 6.68142 18.0121 6.67529 18.0995 6.65707C18.3454 6.60617 18.5255 6.45352 18.6066 6.22723C18.6265 6.17142 18.5659 6.05516 18.5215 5.97022C18.514 5.95579 18.5067 5.94178 18.4999 5.92832C18.4822 5.89351 18.4443 5.86185 18.4004 5.82518C18.3884 5.81521 18.3757 5.80453 18.3627 5.7931L17.8082 6.26598C17.7934 6.2786 17.7734 6.28294 17.7547 6.27756C17.7361 6.2722 17.7214 6.25782 17.7154 6.23913C17.6984 6.18592 17.6802 6.13433 17.6623 6.08348C17.6188 5.96033 17.5778 5.844 17.5577 5.72043C17.541 5.61741 17.5652 5.46094 17.6432 5.37389C17.7554 5.24858 17.829 5.14014 17.849 4.98677C17.8633 4.8775 17.8975 4.80902 17.9566 4.77121C18.0361 4.72031 18.1385 4.74458 18.2086 4.76717L18.229 4.77379C18.2585 4.78356 18.2864 4.79263 18.3142 4.79856C18.4722 4.83238 18.5924 4.81475 18.6531 4.7489C18.7254 4.67045 18.7074 4.53835 18.6796 4.44148C18.6741 4.42232 18.6786 4.40154 18.6918 4.38662C18.7236 4.35042 18.7553 4.31722 18.786 4.28509C18.8489 4.21924 18.9082 4.1571 18.9485 4.0887C18.9904 4.01762 19.0162 3.93605 19.0436 3.84964C19.0559 3.81086 19.0682 3.77209 19.082 3.73443C19.0876 3.71908 19.0992 3.70673 19.1142 3.70046C19.1291 3.69411 19.1461 3.69453 19.1607 3.70138C19.1855 3.71281 19.2093 3.72409 19.2325 3.73527C19.2809 3.75848 19.3266 3.78032 19.3729 3.79886C19.4038 3.81134 19.4314 3.81761 19.4554 3.81761C19.4728 3.81761 19.4884 3.81434 19.5019 3.80772ZM9.275 4.72785C9.25949 4.71334 9.25308 4.69138 9.25826 4.67065C9.31807 4.4309 9.49475 4.39093 9.63676 4.35885C9.6683 4.35176 9.69795 4.34499 9.72568 4.33653C10.1146 4.21777 10.4945 4.1101 10.8548 4.01638C11.1481 3.94009 11.4805 3.85368 11.7956 4.0677C12.0175 4.21854 12.2616 4.2532 12.5635 4.17684C12.6207 4.16234 12.6796 4.1638 12.7186 4.16499C12.7297 4.16499 12.7393 4.16568 12.7462 4.16499C12.7747 4.16422 12.8 4.18346 12.8058 4.21172C12.8124 4.24435 12.817 4.27552 12.8215 4.30572C12.8302 4.36527 12.8378 4.41731 12.858 4.45621C12.879 4.46353 12.9304 4.46645 12.9539 4.46179C13.0801 4.26786 13.2697 4.23305 13.4226 4.20501C13.4649 4.1972 13.5048 4.18988 13.5411 4.17996C13.5577 4.1753 13.5754 4.17845 13.5895 4.18834C13.6037 4.19831 13.6127 4.21393 13.6143 4.23124C13.6173 4.26471 13.6203 4.29657 13.6232 4.32753C13.6296 4.39477 13.6355 4.45705 13.6399 4.51953C13.642 4.54847 13.6451 4.57755 13.6481 4.60671C13.6565 4.68696 13.6653 4.76997 13.6544 4.85261C13.6377 4.98079 13.6035 5.11941 13.5498 5.27655C13.531 5.33164 13.4943 5.37523 13.4587 5.41728C13.4448 5.43374 13.4309 5.45013 13.4185 5.46714C13.4029 5.48856 13.375 5.49669 13.3506 5.48695L13.2923 5.46406C13.267 5.45402 13.2519 5.42747 13.2562 5.40027C13.26 5.3755 13.2655 5.35068 13.2708 5.32579C13.2817 5.27551 13.2921 5.228 13.2885 5.18484L13.2867 5.16287C13.2796 5.0727 13.2714 4.9706 13.229 4.91816C13.2044 4.90589 13.1018 4.9139 13.0301 4.94479C12.8577 5.01934 12.6846 5.10156 12.5171 5.18107C12.3704 5.25074 12.2187 5.32272 12.0674 5.38966C11.9198 5.45494 11.7637 5.50368 11.6129 5.55081L11.5712 5.56386C11.4543 5.60055 11.4425 5.62259 11.4412 5.62663C11.4406 5.62894 11.4367 5.65138 11.5053 5.73424C11.5889 5.83534 11.6698 5.95733 11.5749 6.12679C11.5722 6.14291 11.5829 6.18369 11.5932 6.1971C11.634 6.21808 11.6962 6.22477 11.712 6.21677C11.8431 6.10316 11.9639 5.97748 12.069 5.84462C12.1511 5.74108 12.7054 5.51608 12.8293 5.61401C12.8964 5.66715 12.9354 5.76178 12.9441 5.83195C12.948 5.86388 12.9524 5.89611 12.9568 5.92832C12.9782 6.08586 13.0004 6.24885 12.9782 6.40701C12.9416 6.66672 12.8626 6.92209 12.7861 7.16896L12.7835 7.17753C12.7719 7.21485 12.7397 7.24497 12.6876 7.26724C12.5661 7.31903 12.3157 7.33048 12.1967 7.27001C12.1705 7.2567 12.147 7.24086 12.1243 7.22551C12.099 7.2085 12.075 7.19246 12.0508 7.18222C12.019 7.16861 11.9754 7.15564 11.9487 7.17029C11.9231 7.18423 11.911 7.22531 11.9053 7.25725C11.8482 7.57859 11.8171 7.60101 11.488 7.55734L11.4722 7.55519C11.448 7.55211 11.3882 7.57651 11.3684 7.59386C11.337 7.82749 11.1707 7.90562 11.0237 7.97457C10.9802 7.99502 10.9391 8.01426 10.9009 8.0372C10.738 8.13483 10.5757 8.2407 10.4186 8.34302C10.3187 8.40815 10.2154 8.47544 10.1127 8.54023C10.0966 8.55042 10.0803 8.5615 10.0637 8.57273C9.99604 8.61882 9.91936 8.67099 9.83659 8.67329C9.70564 8.67677 9.63089 8.74128 9.53187 8.83934C9.50414 8.86681 9.47668 8.895 9.44895 8.92324C9.31952 9.05558 9.18565 9.19234 9.022 9.27144C8.77846 9.38896 8.73185 9.58931 8.67799 9.82133C8.66865 9.86134 8.65933 9.90158 8.64889 9.94148C8.64183 9.96825 8.63416 9.99491 8.62413 10.0292L8.60621 10.0911C8.60056 10.1109 8.58507 10.1262 8.56543 10.1315C8.54571 10.1368 8.52469 10.1315 8.51004 10.1171C8.37963 9.99029 8.28123 9.87843 8.29831 9.69215C8.31159 9.54647 8.2858 9.44229 8.2237 9.39111C8.15124 9.33134 8.03611 9.34904 7.95231 9.37443C7.88385 9.39515 7.81389 9.41308 7.74619 9.43036C7.48785 9.49653 7.24392 9.55911 7.06468 9.76971C6.90123 9.96186 6.90718 10.1968 6.93454 10.4014C6.94113 10.4505 6.96166 10.484 6.99548 10.5011C7.04885 10.5281 7.13177 10.5154 7.21729 10.4674C7.28492 10.4294 7.3598 10.4107 7.43227 10.3925C7.4629 10.3849 7.49345 10.3772 7.52332 10.3681C7.5512 10.3594 7.58114 10.3731 7.59316 10.3999L7.61986 10.4593C7.62885 10.4792 7.626 10.5025 7.61261 10.5198C7.60685 10.5271 7.60167 10.5353 7.59648 10.5435C7.58092 10.5679 7.5615 10.5983 7.52934 10.616C7.2406 10.7747 7.19586 11.0511 7.17014 11.3695C7.16461 11.4385 7.16065 11.5092 7.15692 11.5776C7.15195 11.6686 7.14677 11.7628 7.13757 11.8556C7.11926 12.0398 7.16183 12.1813 7.27585 12.3147C7.3228 12.3696 7.34466 12.4387 7.36582 12.5058C7.37806 12.5445 7.38954 12.5812 7.40537 12.6135C7.451 12.7069 7.47347 12.7194 7.47922 12.7211C7.66998 12.7705 7.79535 12.728 7.88572 12.5833C7.94698 12.4852 8.01426 12.4327 8.09143 12.4226C8.17218 12.4122 8.25716 12.45 8.35092 12.5386L8.38337 12.5693C8.6347 12.8072 8.8721 13.0319 9.23026 13.0555C9.31129 13.0608 9.38155 13.1414 9.43278 13.2001C9.6672 13.4688 9.87069 13.6818 10.1781 13.7767C10.3107 13.8177 10.4164 13.9452 10.4677 14.0177C10.6048 14.2114 10.7181 14.4148 10.8108 14.5882C10.8513 14.6639 10.8597 14.7554 10.8673 14.8361L10.8684 14.8483C10.8831 15.0046 10.9038 15.1214 11.0367 15.2001C11.0926 15.2332 11.2291 15.3241 11.29 15.4542C11.4559 15.808 11.7613 15.9165 11.9883 15.9452C12.2339 15.9761 12.4259 16.0941 12.5436 16.2861C12.6772 16.5041 12.6986 16.8012 12.6009 17.0807C12.5704 17.1681 12.5413 17.2559 12.5121 17.3438C12.4665 17.4812 12.4193 17.6234 12.3673 17.7617C12.3464 17.8174 12.3096 17.8626 12.274 17.9063C12.2583 17.9255 12.2436 17.9438 12.2304 17.9622C12.0602 18.2043 12.0177 18.4014 12.0884 18.6212C12.188 18.9311 12.0888 19.0623 11.8288 19.2396C11.7342 19.3041 11.6488 19.4263 11.5677 19.6134C11.5463 19.6624 11.5285 19.7144 11.5112 19.7646C11.4538 19.9319 11.3943 20.1048 11.2005 20.2242C11.1541 20.2529 11.1302 20.367 11.1111 20.4586C11.1028 20.4988 11.0941 20.5402 11.0835 20.5776C11.047 20.7062 10.9973 20.8819 10.7622 20.8908C10.7435 20.9053 10.7046 20.9687 10.688 21.0268C10.6638 21.1117 10.6523 21.2 10.6402 21.2935C10.6361 21.3256 10.6319 21.3575 10.6273 21.3893C10.6249 21.4056 10.6212 21.4227 10.6176 21.4397C10.6105 21.4729 10.6024 21.5106 10.6096 21.5293C10.6267 21.5747 10.6435 21.6201 10.6605 21.6655C10.7464 21.8963 10.8353 22.1349 10.9467 22.3555C11.016 22.4923 11.1071 22.6164 11.2037 22.7477C11.246 22.8054 11.2899 22.8651 11.3314 22.9257C11.3473 22.9487 11.3447 22.98 11.3251 23.0001C11.3137 23.0116 11.2988 23.0176 11.2837 23.0176C11.2725 23.0176 11.2612 23.0144 11.2514 23.0077L10.8299 22.7235C10.5154 22.5115 10.2062 22.3031 9.89744 22.0941C9.64728 21.9248 9.53298 21.6657 9.4224 21.415L9.3962 21.3558C9.36217 21.2794 9.31731 21.2083 9.26974 21.133C9.2313 21.0721 9.19155 21.0092 9.15792 20.9429C9.11202 20.8523 9.07911 20.7557 9.04722 20.6621C9.03982 20.6402 9.03242 20.6185 9.02483 20.5968C8.99046 20.4983 8.95705 20.3993 8.92374 20.3003C8.87824 20.1654 8.83121 20.0258 8.7822 19.8899C8.67364 19.5882 8.55886 19.2794 8.43121 18.9457C8.41503 18.9033 8.39394 18.8624 8.37147 18.8192C8.349 18.7757 8.32577 18.7308 8.30731 18.6832C8.28877 18.6354 8.2694 18.5877 8.24998 18.5399C8.18968 18.3917 8.12739 18.2383 8.09108 18.0793C7.96959 17.5465 7.69722 17.0896 7.42868 16.6672L7.40751 16.6339C7.26356 16.4082 7.11468 16.1748 7.10072 15.8789C7.09268 15.7123 7.0812 15.5427 7.07009 15.3787C7.05785 15.1998 7.04534 15.0145 7.0373 14.8319C7.03268 14.7261 7.05259 14.6187 7.09207 14.5376C7.14974 14.4185 7.21363 14.3009 7.27543 14.187C7.34301 14.0624 7.41304 13.9335 7.47416 13.804C7.52949 13.687 7.60616 13.511 7.63404 13.334C7.68451 13.013 7.55203 12.9653 7.28809 12.8704C7.07368 12.7933 6.95116 12.6467 6.90246 12.4092C6.88132 12.3057 6.86092 12.202 6.84059 12.0986C6.81384 11.9628 6.78616 11.8223 6.75713 11.6848C6.74946 11.6486 6.73218 11.6076 6.70411 11.5594L6.70167 11.5552C6.54444 11.2844 6.38188 11.0044 6.21732 10.7321C6.10377 10.5443 6.10377 10.3577 6.21725 10.1924C6.33672 10.0185 6.37848 9.8792 6.35685 9.72674C6.32745 9.52019 6.41937 9.35499 6.50786 9.21627C6.52937 9.18253 6.5335 9.10594 6.51652 9.07058C6.50287 9.06339 6.46118 9.05809 6.43574 9.05481C6.40877 9.05139 6.38097 9.04785 6.3543 9.04158C6.32379 9.03439 6.30437 9.00419 6.31039 8.9731C6.36361 8.70069 6.49749 8.4382 6.69752 8.21392C6.74794 8.15737 6.78238 8.08366 6.81888 8.00561C6.84433 7.95109 6.87068 7.89458 6.90372 7.84229C6.94541 7.77617 6.98676 7.70749 7.02673 7.64102C7.14517 7.44386 7.26764 7.24024 7.42246 7.0675C7.60956 6.85862 7.81809 6.66496 8.01972 6.47757C8.14005 6.36585 8.26436 6.25036 8.38239 6.13329C8.52138 5.99534 8.65911 5.85099 8.79242 5.7115C8.92596 5.57167 9.06396 5.42717 9.20357 5.28853C9.262 5.23051 9.33032 5.18499 9.39634 5.14091C9.43976 5.1119 9.48076 5.08448 9.51913 5.05386C9.53069 5.04466 9.54286 5.03539 9.55532 5.02596C9.60426 4.98872 9.65972 4.94655 9.67022 4.90824C9.68772 4.84423 9.68086 4.75629 9.65301 4.67839C9.6196 4.67645 9.55067 4.68411 9.51466 4.68815L9.4827 4.69158C9.45837 4.69408 9.43133 4.70427 9.39711 4.71724C9.37766 4.72455 9.35652 4.73258 9.33273 4.74047C9.32678 4.74243 9.3207 4.74332 9.31468 4.74332C9.30015 4.74332 9.28592 4.73789 9.275 4.72758V4.72785ZM14.3181 5.81206C14.2526 5.78982 14.2163 5.67342 14.2314 5.61597C14.2409 5.58024 14.2499 5.54442 14.2591 5.50849C14.3005 5.3451 14.3433 5.17619 14.417 5.022L14.4438 4.96641C14.5622 4.7222 14.6644 4.51123 14.4894 4.28167C14.4769 4.26505 14.4738 4.24294 14.4818 4.22362C14.5645 4.02042 14.7218 4.0193 14.8483 4.01831C14.8688 4.01826 14.8896 4.01834 14.9103 4.01715C15.1232 4.00792 15.34 3.9861 15.5495 3.96491C15.6482 3.95494 15.7469 3.94495 15.8457 3.93624C15.8707 3.93409 15.8935 3.93848 15.9118 3.9421C15.9176 3.94321 15.9231 3.94433 15.9282 3.94495C15.9468 3.9474 15.9631 3.95876 15.972 3.97549C16.0882 4.19454 15.9755 4.34338 15.876 4.47456C15.8632 4.49149 15.8503 4.50838 15.8379 4.52568C15.8118 4.56166 15.792 4.6042 15.7709 4.6493C15.7458 4.70323 15.7198 4.75886 15.6808 4.80761L15.6638 4.82903C15.5865 4.9261 15.499 5.03623 15.3856 5.06489C15.0882 5.14026 14.907 5.34999 14.7152 5.57204C14.6816 5.61094 14.6479 5.64984 14.6136 5.68807C14.6065 5.69608 14.6001 5.7055 14.5936 5.71485C14.5756 5.74093 14.5531 5.77336 14.5164 5.78856C14.464 5.81025 14.4173 5.82121 14.3768 5.82121C14.3555 5.82121 14.3358 5.81821 14.3181 5.81206ZM14.0009 4.40432C13.9426 4.28578 13.912 4.19154 13.9527 4.11679C13.9935 4.04147 14.0897 4.0165 14.2213 4.00234C14.2429 4.00006 14.264 4.01003 14.2759 4.02823C14.288 4.0465 14.2889 4.06986 14.2784 4.08905L14.1038 4.4067C14.0936 4.42532 14.0741 4.43682 14.053 4.43682H14.0518C14.0302 4.43613 14.0106 4.42386 14.0009 4.40432ZM27.0578 13.4121C27.0342 13.409 27.0148 13.3917 27.0089 13.3684C27.0023 13.3432 26.9951 13.3181 26.9878 13.293C26.971 13.2354 26.9536 13.1759 26.9462 13.1136C26.9322 12.9951 26.9204 12.8745 26.9091 12.7579C26.8904 12.5653 26.8712 12.3662 26.8408 12.1731C26.8238 12.0658 26.7852 11.9623 26.7446 11.8525C26.7262 11.8035 26.7073 11.7527 26.6908 11.7019C26.6812 11.6724 26.696 11.6405 26.7245 11.6291L26.7869 11.604C26.8044 11.5971 26.824 11.599 26.8398 11.6092C27.1657 11.8205 27.3437 12.9637 27.1161 13.3821C27.1058 13.4009 27.0861 13.4125 27.0652 13.4125C27.0627 13.4125 27.0603 13.4125 27.0578 13.4118V13.4121ZM24.7419 18.2841C24.7181 18.2721 24.7055 18.2454 24.7112 18.2193C24.7252 18.1555 24.7281 18.0891 24.7318 18.0188C24.7394 17.8603 24.7483 17.6807 24.8987 17.5324C24.9545 17.4776 24.9867 17.3735 25.0084 17.3046C25.0263 17.2466 25.044 17.1886 25.0615 17.1307C25.1655 16.7878 25.2731 16.4333 25.4757 16.1092C25.5654 15.9653 25.5959 15.7716 25.6254 15.5842C25.6345 15.5251 25.6443 15.464 25.6556 15.4052C25.7065 15.1413 25.7554 14.8724 25.8026 14.6122C25.8599 14.2959 25.9194 13.9687 25.9831 13.6478C25.9966 13.5807 26.046 13.5303 26.0942 13.4817C26.1131 13.4622 26.1313 13.4439 26.1461 13.4256C26.1679 13.3978 26.2144 13.3978 26.2365 13.4256C26.25 13.4428 26.2653 13.4592 26.2803 13.4757C26.3169 13.5161 26.355 13.5578 26.3786 13.6108C26.6475 14.2167 26.8012 14.8273 26.8354 15.4254C26.8518 15.7134 26.781 16.0065 26.7073 16.282C26.6148 16.6265 26.5015 16.9707 26.3919 17.3035C26.3572 17.4084 26.3228 17.5133 26.2889 17.6184C26.2729 17.6676 26.2488 17.711 26.221 17.7614C26.208 17.7852 26.1937 17.8106 26.1795 17.839C26.1714 17.855 26.1564 17.8663 26.1392 17.8698C26.1217 17.8733 26.1035 17.8686 26.0903 17.857C26.0777 17.8465 26.0654 17.8364 26.0536 17.8267C25.9614 17.7513 25.857 17.6658 25.944 17.4976C26.0209 17.3487 26.0167 17.2895 25.9251 17.2343C25.8304 17.177 25.6411 17.2332 25.5575 17.3436C25.2744 17.7172 25.0443 18.0031 24.8117 18.2705C24.8004 18.2836 24.7842 18.2905 24.768 18.2905C24.7591 18.2905 24.75 18.2885 24.7419 18.2842V18.2841ZM23.7168 18.9671L23.6442 18.9411C23.6174 18.9315 23.6015 18.9038 23.6063 18.8757C23.6128 18.8386 23.6181 18.801 23.6236 18.7634C23.6356 18.6787 23.6481 18.5912 23.6733 18.5067C23.7027 18.4073 23.7392 18.3083 23.7744 18.2125C23.842 18.0286 23.9058 17.855 23.9274 17.6743C23.9489 17.4943 24.023 17.355 24.0947 17.2203C24.1152 17.1816 24.1358 17.143 24.1552 17.1032C24.1801 17.0521 24.2747 16.9745 24.3387 17.0027C24.4022 17.0305 24.4495 17.1012 24.4667 17.1551C24.4849 17.2121 24.4946 17.2969 24.4674 17.3636C24.4138 17.4942 24.3554 17.6248 24.2989 17.751C24.2542 17.8506 24.2082 17.9536 24.1651 18.0555C24.1139 18.1763 24.0644 18.3004 24.0167 18.4205C23.9776 18.5187 23.9385 18.617 23.8981 18.7146C23.8757 18.7686 23.8489 18.8204 23.8228 18.8705C23.8112 18.893 23.7995 18.9154 23.7883 18.9381C23.7782 18.9584 23.7578 18.9704 23.7363 18.9704C23.7299 18.9704 23.7233 18.9694 23.7169 18.9671" fill="url(#ab4bpaint0_linear_53154_4338)"></path><path d="M2.99605 4.73393C2.27626 5.71912 1.67863 6.79701 1.2027 7.92913L1.02355 8.35419C0.968715 8.49771 0.921836 8.64424 0.872051 8.78978C0.777597 9.08254 0.664335 9.37019 0.594845 9.67064L0.477161 10.1177L0.418317 10.3414L0.389138 10.4534L0.367289 10.567L0.193181 11.4765C-0.184353 13.9164 -0.0140465 16.457 0.752776 18.8227L0.89639 19.2658L1.06192 19.7012C1.16771 19.9935 1.29874 20.2751 1.42369 20.5595C1.48378 20.7028 1.55479 20.8408 1.62449 20.9796L1.83324 21.396L2.06052 21.8023C2.13824 21.9366 2.20905 22.0751 2.29451 22.2048C2.94296 23.2636 3.71288 24.2461 4.58033 25.1316C5.45771 26.007 6.43265 26.7826 7.48179 27.4376C7.61028 27.5236 7.74765 27.595 7.88084 27.6734L8.28382 27.9027L8.69669 28.1132C8.83423 28.1834 8.97113 28.255 9.11329 28.3158C9.3952 28.4417 9.67446 28.5739 9.96434 28.6805L10.3957 28.8481L10.8352 28.9931C13.1811 29.7655 15.7002 29.9385 18.1197 29.5572L19.0215 29.3814L19.1341 29.3593L19.2452 29.3298L19.467 29.2706L19.9103 29.1516C20.2082 29.0817 20.4934 28.9671 20.7837 28.8719C20.9278 28.8213 21.0735 28.7752 21.2158 28.7194L21.6372 28.5387C22.7598 28.0584 23.8282 27.455 24.8053 26.7293C26.7464 25.262 28.3393 23.3511 29.3814 21.1839C28.1225 23.2281 26.4536 24.9818 24.4926 26.2765C23.5132 26.9244 22.4615 27.4517 21.3692 27.8534C20.2765 28.2531 19.1467 28.5459 17.9965 28.6892C17.7088 28.7207 17.4197 28.7403 17.1319 28.767L16.916 28.7856L16.699 28.7891L16.2654 28.796C16.121 28.7973 15.9766 28.8037 15.8323 28.8037L15.3993 28.7876C15.1104 28.7834 14.8232 28.7517 14.5358 28.7271L14.3204 28.7075L14.1061 28.6773L13.6778 28.6175C13.3934 28.5712 13.1109 28.5126 12.8283 28.4574C12.2676 28.325 11.7101 28.1782 11.168 27.9833C8.98848 27.2378 6.99584 25.9713 5.36796 24.3371C3.74683 22.6959 2.4913 20.686 1.75103 18.4879C1.5579 17.9411 1.41215 17.3788 1.28091 16.8132C1.22608 16.5281 1.16806 16.2432 1.12208 15.9563L1.06282 15.5243L1.03295 15.3082L1.01352 15.0909C0.989322 14.801 0.957584 14.5114 0.953574 14.22L0.9376 13.7832L0.944447 13.3463L0.951291 12.909L0.954747 12.6901L0.973417 12.4722C0.999763 12.182 1.01947 11.8903 1.05065 11.6002C1.19268 10.4399 1.48344 9.30055 1.87881 8.19804C2.27716 7.09624 2.80065 6.03566 3.4426 5.04762C4.7267 3.0699 6.46564 1.38628 8.49278 0.117188C6.34458 1.16947 4.45026 2.77597 2.99605 4.73393Z" fill="url(#443fpaint1_linear_53154_4338)"></path><path d="M36.499 2.47949V26.3476H41.8875C45.8249 26.3476 47.9663 24.2333 47.9663 20.3127V19.494C47.9663 16.357 46.9992 14.5839 44.7197 13.9018V13.8335C46.6539 13.186 47.4484 11.6174 47.4484 8.95798V8.5147C47.4484 4.59335 45.4102 2.47949 41.6107 2.47949H36.499ZM40.1604 5.82097H41.4728C43.0618 5.82097 43.7873 6.70724 43.7873 8.65092V9.43526C43.7873 11.4472 43.0618 12.3335 41.3 12.3335H40.1604V5.82097ZM40.1604 15.675H41.5768C43.5105 15.675 44.305 16.6295 44.305 18.7434V20.0739C44.305 22.0852 43.5105 23.0061 41.7491 23.0061H40.1604V15.675Z" fill="url(#08c2paint2_linear_53154_4338)"></path><path d="M56.0488 8.82366V20.9568C56.0488 24.6035 58.294 26.824 61.9555 26.824C65.6166 26.824 67.8615 24.6035 67.8615 20.9568V8.82366C67.8615 5.17732 65.6166 2.95605 61.9555 2.95605C58.294 2.95605 56.0488 5.17732 56.0488 8.82366ZM59.7104 20.9232V8.85671C59.7104 7.13277 60.5049 6.20476 61.9555 6.20476C63.4062 6.20476 64.2007 7.13277 64.2007 8.85671V20.9232C64.2007 22.6471 63.4062 23.576 61.9555 23.576C60.5049 23.576 59.7104 22.6471 59.7104 20.9232Z" fill="url(#c8d2paint3_linear_53154_4338)"></path><path d="M75.96 2.47949V26.3476H79.6215V16.2545H81.3138L84.215 26.3476H88.0834L84.733 15.4701C86.4255 14.5156 87.3238 12.7424 87.3238 10.2192V8.5147C87.3238 4.59335 85.1824 2.47949 81.2445 2.47949H75.96ZM79.6215 5.82097H81.1063C82.8679 5.82097 83.6624 6.74153 83.6624 8.75316V9.98078C83.6624 11.9927 82.8679 12.9133 81.1063 12.9133H79.6215V5.82097Z" fill="url(#ed38paint4_linear_53154_4338)"></path><path d="M96.1182 2.87207V26.3472H101.368C105.306 26.3472 107.447 24.2677 107.447 20.4116V8.80791C107.447 4.95115 105.306 2.87207 101.368 2.87207H96.1182ZM99.7793 6.15853H101.23C102.991 6.15853 103.786 7.06394 103.786 9.04245V20.1767C103.786 22.1549 102.991 23.0606 101.23 23.0606H99.7793V6.15853Z" fill="url(#4dc2paint5_linear_53154_4338)"></path><path d="M115.538 2.87207V26.3472H125.831V23.0606H119.199V16.0851H124.553V12.7986H119.199V6.15853H125.831V2.87207H115.538Z" fill="url(#1339paint6_linear_53154_4338)"></path><path d="M133.976 2.87207V26.3472H137.636V16.4202H139.329L142.23 26.3472H146.099L142.749 15.6488C144.441 14.71 145.339 12.966 145.339 10.4844V8.80791C145.339 4.95115 143.197 2.87207 139.26 2.87207H133.976ZM137.636 6.15853H139.122C140.883 6.15853 141.678 7.06394 141.678 9.04245V10.2498C141.678 12.2287 140.883 13.1341 139.122 13.1341H137.636V6.15853Z" fill="url(#94c8paint7_linear_53154_4338)"></path><path d="M154.133 2.87207V26.3472H163.908V22.9935H157.794V2.87207H154.133Z" fill="url(#1cbepaint8_linear_53154_4338)"></path><path d="M172.078 2.87207V26.3472H182.371V23.0606H175.739V16.0851H181.093V12.7986H175.739V6.15853H182.371V2.87207H172.078Z" fill="url(#b794paint9_linear_53154_4338)"></path><path d="M190.516 7.98275V8.48588C190.516 11.2358 191.655 13.1809 195.005 15.9308C197.458 17.943 198.183 19.1167 198.183 20.5927V21.3638C198.183 22.8392 197.492 23.5775 196.111 23.5775C194.729 23.5775 194.039 22.8392 194.039 21.3638V19.687L190.516 20.0221V21.5983C190.516 24.952 192.553 26.8633 196.18 26.8633C199.807 26.8633 201.845 24.952 201.845 21.5983V20.4243C201.845 17.6079 200.601 15.6625 197.251 12.9126C194.799 10.9007 194.176 9.72669 194.176 8.35157V8.04989C194.176 6.70819 194.833 6.00421 196.042 6.00421C197.251 6.00421 197.907 6.70819 197.907 8.04989V8.92155L201.43 8.58644V7.98275C201.43 4.62912 199.461 2.71777 195.973 2.71777C192.484 2.71777 190.516 4.62912 190.516 7.98275Z" fill="url(#893apaint10_linear_53154_4338)"></path><path d="M209.936 7.98275V8.48588C209.936 11.2358 211.075 13.1809 214.426 15.9308C216.878 17.943 217.603 19.1167 217.603 20.5927V21.3638C217.603 22.8392 216.913 23.5775 215.531 23.5775C214.149 23.5775 213.459 22.8392 213.459 21.3638V19.687L209.936 20.0221V21.5983C209.936 24.9521 211.973 26.8634 215.6 26.8634C219.227 26.8634 221.264 24.9521 221.264 21.5983V20.4243C221.264 17.6079 220.021 15.6625 216.671 12.9126C214.219 10.9007 213.597 9.72669 213.597 8.35158V8.04989C213.597 6.7082 214.253 6.00424 215.462 6.00424C216.671 6.00424 217.327 6.7082 217.327 8.04989V8.92155L220.85 8.58644V7.98275C220.85 4.62912 218.881 2.71777 215.393 2.71777C211.904 2.71777 209.936 4.62912 209.936 7.98275Z" fill="url(#684bpaint11_linear_53154_4338)"></path></g><defs><linearGradient id="ab4bpaint0_linear_53154_4338" x1="2.61616" y1="13.4644" x2="29.5456" y2="13.4644" gradientUnits="userSpaceOnUse"><stop stop-color="#4D63F5"></stop><stop offset="1" stop-color="#4FACFE"></stop></linearGradient><linearGradient id="443fpaint1_linear_53154_4338" x1="0.0000229454" y1="14.9347" x2="29.3814" y2="14.9347" gradientUnits="userSpaceOnUse"><stop stop-color="#4D63F5"></stop><stop offset="1" stop-color="#4FACFE"></stop></linearGradient><linearGradient id="08c2paint2_linear_53154_4338" x1="42.2327" y1="29.0506" x2="42.2327" y2="-2.65899" gradientUnits="userSpaceOnUse"><stop stop-color="#4D63F5"></stop><stop offset="1" stop-color="#4FACFE"></stop></linearGradient><linearGradient id="c8d2paint3_linear_53154_4338" x1="61.9553" y1="29.1209" x2="61.9553" y2="-1.70815" gradientUnits="userSpaceOnUse"><stop stop-color="#4D63F5"></stop><stop offset="1" stop-color="#4FACFE"></stop></linearGradient><linearGradient id="ed38paint4_linear_53154_4338" x1="82.0218" y1="29.0506" x2="82.0218" y2="-2.65899" gradientUnits="userSpaceOnUse"><stop stop-color="#4D63F5"></stop><stop offset="1" stop-color="#4FACFE"></stop></linearGradient><linearGradient id="4dc2paint5_linear_53154_4338" x1="101.783" y1="29.0055" x2="101.783" y2="-2.18178" gradientUnits="userSpaceOnUse"><stop stop-color="#4D63F5"></stop><stop offset="1" stop-color="#4FACFE"></stop></linearGradient><linearGradient id="1339paint6_linear_53154_4338" x1="120.684" y1="29.0055" x2="120.684" y2="-2.18178" gradientUnits="userSpaceOnUse"><stop stop-color="#4D63F5"></stop><stop offset="1" stop-color="#4FACFE"></stop></linearGradient><linearGradient id="94c8paint7_linear_53154_4338" x1="140.037" y1="29.0055" x2="140.037" y2="-2.18178" gradientUnits="userSpaceOnUse"><stop stop-color="#4D63F5"></stop><stop offset="1" stop-color="#4FACFE"></stop></linearGradient><linearGradient id="1cbepaint8_linear_53154_4338" x1="159.021" y1="29.0055" x2="159.021" y2="-2.18178" gradientUnits="userSpaceOnUse"><stop stop-color="#4D63F5"></stop><stop offset="1" stop-color="#4FACFE"></stop></linearGradient><linearGradient id="b794paint9_linear_53154_4338" x1="177.224" y1="29.0055" x2="177.224" y2="-2.18178" gradientUnits="userSpaceOnUse"><stop stop-color="#4D63F5"></stop><stop offset="1" stop-color="#4FACFE"></stop></linearGradient><linearGradient id="893apaint10_linear_53154_4338" x1="196.18" y1="29.1867" x2="196.18" y2="-2.00067" gradientUnits="userSpaceOnUse"><stop stop-color="#4D63F5"></stop><stop offset="1" stop-color="#4FACFE"></stop></linearGradient><linearGradient id="684bpaint11_linear_53154_4338" x1="215.6" y1="29.1868" x2="215.6" y2="-2.00067" gradientUnits="userSpaceOnUse"><stop stop-color="#4D63F5"></stop><stop offset="1" stop-color="#4FACFE"></stop></linearGradient><clipPath id="d997clip0_53154_4338"><rect width="221.489" height="30" fill="white"></rect></clipPath></defs></svg>