<svg viewBox="0 0 36 36" fill="none" xmlns="http://www.w3.org/2000/svg" width="2.25rem" height="2.25rem"><g clip-path="url(#2b98clip0_2368_5601)"><rect width="36" height="36" rx="18" fill="url(#a741paint0_linear_2368_5601)"></rect><g filter="url(#10f1filter0_d_2368_5601)"><path d="M2.96812 41.7553C2.05541 35.8336 0.781971 22.0799 2.96812 14.4284M12.5325 41.7553C12.5325 38.681 12.9971 34.8799 14.2487 30.8246M33.0277 7.59668C27.0158 11.1027 22.6599 15.404 19.5528 19.8938" stroke="url(#bbc1paint1_linear_2368_5601)" stroke-opacity="0.09" stroke-width="4.28008" stroke-linecap="round" shape-rendering="crispEdges"></path></g><g filter="url(#38ddfilter1_f_2368_5601)"><path d="M42.5527 23.3422C42.5527 40.1537 30.8897 53.7821 16.5026 53.7821C2.11562 53.7821 -9.54736 40.1537 -9.54736 23.3422C-9.54736 6.53078 2.11562 -7.0976 16.5026 -7.0976C30.8897 -7.0976 42.5527 6.53078 42.5527 23.3422Z" fill="url(#2825paint2_radial_2368_5601)"></path></g><g filter="url(#de8afilter2_f_2368_5601)"><path d="M39.0909 32.7927C39.0909 41.764 32.8671 49.0366 25.1896 49.0366C17.5122 49.0366 11.2883 41.764 11.2883 32.7927C11.2883 23.8215 17.5122 16.5489 25.1896 16.5489C32.8671 16.5489 39.0909 23.8215 39.0909 32.7927Z" fill="url(#b4a6paint3_radial_2368_5601)"></path></g><circle cx="16.4195" cy="1.38578" r="0.0830447" fill="#4E7BF8"></circle><circle cx="1.34257" cy="15.1426" r="0.0830447" fill="#4E7BF8"></circle><circle cx="25.4558" cy="16.4649" r="0.0830447" fill="#4E7BF8"></circle><circle cx="11.5684" cy="3.65336" r="0.0830447" fill="#4E7BF8"></circle><g opacity="0.5" filter="url(#97f1filter3_f_2368_5601)"><path d="M14.3757 7.96949C15.8205 5.43402 16.543 4.16628 17.6318 4.14483C18.7206 4.12339 19.4556 5.36245 20.9246 7.84224L21.3047 8.48336C21.7224 9.18852 21.9319 9.54097 22.2549 9.76892C22.5795 9.998 22.9811 10.0773 23.7858 10.2358L24.5188 10.3811C27.3512 10.9399 28.7674 11.2193 29.108 12.2505C29.4503 13.2829 28.4908 14.3824 26.5738 16.5839L26.0781 17.1531C25.5333 17.7789 25.2601 18.0912 25.1384 18.4745C25.0182 18.8575 25.0615 19.2659 25.1483 20.0842L25.2279 20.8301C25.5334 23.7105 25.6862 25.1514 24.8091 25.8096C23.9308 26.4695 22.6042 25.9095 19.9484 24.7913L19.2617 24.5017C18.5077 24.1839 18.131 24.0263 17.7319 24.0332C17.3328 24.0402 16.9579 24.2133 16.2069 24.5612L15.5223 24.8768C12.881 26.0989 11.5586 26.7088 10.6743 26.0849C9.79001 25.461 9.92798 24.0139 10.2058 21.1223L10.2761 20.3739C10.3548 19.5518 10.395 19.1413 10.2705 18.7634C10.1445 18.3858 9.86904 18.0842 9.31752 17.4784L8.81655 16.9284C6.87657 14.8024 5.90716 13.7386 6.23665 12.6963C6.56844 11.6508 7.98096 11.3166 10.8072 10.6465L11.5378 10.4743C12.3419 10.2845 12.7424 10.1892 13.0645 9.94755C13.3852 9.70617 13.5906 9.34681 14.0011 8.62529L14.3757 7.96949Z" fill="#0038FF" fill-opacity="0.94"></path></g><g filter="url(#7190filter4_d_2368_5601)"><path d="M22.5468 15.9605C20.8674 14.5578 20.0284 13.8564 19.256 14.1257C18.4853 14.3962 18.294 15.4598 17.9116 17.5869L17.8113 18.1369C17.7035 18.7416 17.6481 19.0436 17.48 19.2893C17.3132 19.5347 17.0504 19.6963 16.5275 20.0189L16.0499 20.3117C14.2065 21.4463 13.2842 22.0144 13.3139 22.8285C13.345 23.6424 14.3066 24.1657 16.2306 25.2091L16.7276 25.4808C17.2753 25.7767 17.5492 25.9253 17.7336 26.1623C17.9208 26.3988 17.9965 26.6988 18.1492 27.2971L18.2893 27.8413C18.8277 29.9454 19.0984 30.998 19.8877 31.2314C20.6771 31.4649 21.464 30.7232 23.037 29.2428L23.4432 28.8588C23.8906 28.4385 24.1142 28.2276 24.3954 28.1278C24.6782 28.0291 24.9889 28.0525 25.606 28.1003L26.1701 28.1431C28.3463 28.3086 29.4353 28.3926 29.8939 27.7216C30.3511 27.0509 29.8753 26.0715 28.9232 24.1099L28.6761 23.6052C28.4063 23.0469 28.2707 22.7678 28.2591 22.4707C28.2486 22.172 28.3636 21.8882 28.5918 21.3181L28.8019 20.8003C29.6072 18.7979 30.0093 17.7975 29.5024 17.1503C28.9969 16.5029 27.9168 16.6369 25.7558 16.9081L25.1959 16.9773C24.5826 17.0546 24.2744 17.0928 23.9859 17.0076C23.6959 16.9225 23.4575 16.7227 22.9808 16.323L22.5468 15.9605Z" fill="#DBEDFF"></path></g><g opacity="0.5" filter="url(#9ca2filter5_d_2368_5601)"><path d="M14.0336 8.19215C15.4785 5.65667 16.2009 4.38894 17.2897 4.36749C18.3785 4.34604 19.1136 5.58511 20.5826 8.06489L20.9627 8.70601C21.3804 9.41117 21.5899 9.76363 21.9128 9.99157C22.2374 10.2207 22.6391 10.3 23.4438 10.4584L24.1767 10.6037C27.0092 11.1625 28.4254 11.4419 28.766 12.4732C29.1082 13.5056 28.1488 14.6051 26.2318 16.8065L25.7361 17.3758C25.1913 18.0015 24.9181 18.3139 24.7964 18.6971C24.6761 19.0801 24.7194 19.4886 24.8063 20.3069L24.8859 21.0528C25.1913 23.9331 25.3442 25.374 24.4671 26.0323C23.5888 26.6922 22.2622 26.1321 19.6064 25.0139L18.9197 24.7244C18.1657 24.4065 17.789 24.249 17.3899 24.2559C16.9907 24.2628 16.6158 24.4359 15.8648 24.7838L15.1803 25.0995C12.5389 26.3216 11.2166 26.9315 10.3323 26.3075C9.44797 25.6836 9.58594 24.2366 9.86379 21.3449L9.93409 20.5966C10.0128 19.7745 10.0529 19.364 9.92841 18.9861C9.8025 18.6084 9.52699 18.3069 8.97548 17.701L8.47451 17.1511C6.53453 15.0251 5.56512 13.9612 5.89461 12.919C6.2264 11.8734 7.63892 11.5392 10.4651 10.8692L11.1957 10.697C11.9998 10.5072 12.4003 10.4118 12.7224 10.1702C13.0431 9.92882 13.2486 9.56946 13.659 8.84795L14.0336 8.19215Z" fill="#DBEDFF" fill-opacity="0.79" shape-rendering="crispEdges"></path></g><ellipse cx="8.4786" cy="31.6676" rx="0.124599" ry="0.124599" fill="#4E7BF8"></ellipse><ellipse cx="6.79843" cy="6.16562" rx="0.124599" ry="0.124599" fill="#4E7BF8"></ellipse><ellipse cx="25.8709" cy="6.28964" rx="0.124599" ry="0.124599" fill="#4E7BF8"></ellipse><circle cx="8.90826" cy="8.0064" r="0.0747595" fill="#4E7BF8"></circle><circle cx="28.6778" cy="31.4673" r="0.0747595" fill="#FFF9C4"></circle><circle cx="16.1644" cy="10.7662" r="0.0747595" fill="#FFF9C4"></circle><circle cx="5.35015" cy="13.2378" r="0.0747595" fill="#FFF9C4"></circle><circle cx="13.5381" cy="19.2632" r="0.0747595" fill="#FFF9C4"></circle><circle cx="18.5457" cy="5.96636" r="0.0747595" fill="#FFF9C4"></circle><path d="M4.1862 8.90684C3.6132 8.75384 2.9632 8.00684 2.9632 8.00684C2.9632 8.00684 3.2862 8.94284 3.1322 9.51584C2.9792 10.0888 2.2312 10.7388 2.2312 10.7388C2.2312 10.7388 3.1682 10.4158 3.7412 10.5688C4.3142 10.7228 4.9642 11.4708 4.9642 11.4708C4.9642 11.4708 4.6402 10.5338 4.7942 9.96084C4.9472 9.38884 5.6962 8.73884 5.6962 8.73884C5.6962 8.73884 4.7592 9.06184 4.1862 8.90684Z" fill="white" fill-opacity="0.1"></path><circle cx="10.3715" cy="3.99066" r="0.0658537" fill="#FFF9C4"></circle><circle cx="4.04364" cy="27.7368" r="0.0658537" fill="#FFF9C4"></circle><circle cx="32.2809" cy="11.3393" r="0.0658537" fill="#FFF9C4"></circle></g><defs><filter id="10f1filter0_d_2368_5601" x="-1.37964" y="4.45605" width="37.5479" height="40.4395" filterUnits="userSpaceOnUse" color-interpolation-filters="sRGB"><feFlood flood-opacity="0" result="BackgroundImageFix"></feFlood><feColorMatrix in="SourceAlpha" type="matrix" values="0 0 0 0 0 0 0 0 0 0 0 0 0 0 0 0 0 0 127 0" result="hardAlpha"></feColorMatrix><feOffset></feOffset><feGaussianBlur stdDeviation="0.5"></feGaussianBlur><feComposite in2="hardAlpha" operator="out"></feComposite><feColorMatrix type="matrix" values="0 0 0 0 1 0 0 0 0 1 0 0 0 0 1 0 0 0 0.14 0"></feColorMatrix><feBlend mode="normal" in2="BackgroundImageFix" result="effect1_dropShadow_2368_5601"></feBlend><feBlend mode="normal" in="SourceGraphic" in2="effect1_dropShadow_2368_5601" result="shape"></feBlend></filter><filter id="38ddfilter1_f_2368_5601" x="-11.6301" y="-9.18042" width="56.2656" height="65.0454" filterUnits="userSpaceOnUse" color-interpolation-filters="sRGB"><feFlood flood-opacity="0" result="BackgroundImageFix"></feFlood><feBlend mode="normal" in="SourceGraphic" in2="BackgroundImageFix" result="shape"></feBlend><feGaussianBlur stdDeviation="1.04138" result="effect1_foregroundBlur_2368_5601"></feGaussianBlur></filter><filter id="de8afilter2_f_2368_5601" x="-2.79167" y="2.46883" width="55.9625" height="60.6473" filterUnits="userSpaceOnUse" color-interpolation-filters="sRGB"><feFlood flood-opacity="0" result="BackgroundImageFix"></feFlood><feBlend mode="normal" in="SourceGraphic" in2="BackgroundImageFix" result="shape"></feBlend><feGaussianBlur stdDeviation="7.04" result="effect1_foregroundBlur_2368_5601"></feGaussianBlur></filter><filter id="97f1filter3_f_2368_5601" x="4.34577" y="2.31696" width="26.6581" height="25.8436" filterUnits="userSpaceOnUse" color-interpolation-filters="sRGB"><feFlood flood-opacity="0" result="BackgroundImageFix"></feFlood><feBlend mode="normal" in="SourceGraphic" in2="BackgroundImageFix" result="shape"></feBlend><feGaussianBlur stdDeviation="0.913787" result="effect1_foregroundBlur_2368_5601"></feGaussianBlur></filter><filter id="7190filter4_d_2368_5601" x="2.34779" y="4.93146" width="38.687" height="39.135" filterUnits="userSpaceOnUse" color-interpolation-filters="sRGB"><feFlood flood-opacity="0" result="BackgroundImageFix"></feFlood><feColorMatrix in="SourceAlpha" type="matrix" values="0 0 0 0 0 0 0 0 0 0 0 0 0 0 0 0 0 0 127 0" result="hardAlpha"></feColorMatrix><feOffset dy="1.82757"></feOffset><feGaussianBlur stdDeviation="5.48272"></feGaussianBlur><feComposite in2="hardAlpha" operator="out"></feComposite><feColorMatrix type="matrix" values="0 0 0 0 0.105967 0 0 0 0 0.238612 0 0 0 0 0.935 0 0 0 0.53 0"></feColorMatrix><feBlend mode="normal" in2="BackgroundImageFix" result="effect1_dropShadow_2368_5601"></feBlend><feBlend mode="normal" in="SourceGraphic" in2="effect1_dropShadow_2368_5601" result="shape"></feBlend></filter><filter id="9ca2filter5_d_2368_5601" x="-82.8061" y="-82.4426" width="200.278" height="199.463" filterUnits="userSpaceOnUse" color-interpolation-filters="sRGB"><feFlood flood-opacity="0" result="BackgroundImageFix"></feFlood><feColorMatrix in="SourceAlpha" type="matrix" values="0 0 0 0 0 0 0 0 0 0 0 0 0 0 0 0 0 0 127 0" result="hardAlpha"></feColorMatrix><feOffset dy="1.82757"></feOffset><feGaussianBlur stdDeviation="44.3187"></feGaussianBlur><feComposite in2="hardAlpha" operator="out"></feComposite><feColorMatrix type="matrix" values="0 0 0 0 0.105967 0 0 0 0 0.238612 0 0 0 0 0.935 0 0 0 0.03 0"></feColorMatrix><feBlend mode="normal" in2="BackgroundImageFix" result="effect1_dropShadow_2368_5601"></feBlend><feBlend mode="normal" in="SourceGraphic" in2="effect1_dropShadow_2368_5601" result="shape"></feBlend></filter><linearGradient id="a741paint0_linear_2368_5601" x1="18" y1="0" x2="18" y2="36" gradientUnits="userSpaceOnUse"><stop stop-color="#253D71"></stop><stop offset="1" stop-color="#060C22"></stop></linearGradient><linearGradient id="bbc1paint1_linear_2368_5601" x1="17.3941" y1="7.59668" x2="17.3941" y2="41.7553" gradientUnits="userSpaceOnUse"><stop stop-color="#D1E3F5"></stop><stop offset="1" stop-color="#BBA4FC" stop-opacity="0.28"></stop></linearGradient><radialGradient id="2825paint2_radial_2368_5601" cx="0" cy="0" r="1" gradientUnits="userSpaceOnUse" gradientTransform="translate(16.5026 2.68918) rotate(-90) scale(30.0433 18.4309)"><stop stop-color="#067FFF"></stop><stop offset="1" stop-color="#4E7BF8" stop-opacity="0"></stop></radialGradient><radialGradient id="b4a6paint3_radial_2368_5601" cx="0" cy="0" r="1" gradientUnits="userSpaceOnUse" gradientTransform="translate(25.1896 21.7715) rotate(-90) scale(16.0323 9.83545)"><stop stop-color="#06E1FF"></stop><stop offset="1" stop-color="#F84EC8" stop-opacity="0"></stop></radialGradient><clipPath id="2b98clip0_2368_5601"><rect width="36" height="36" rx="18" fill="white"></rect></clipPath></defs></svg>