<svg viewBox="0 0 39 38" fill="none" xmlns="http://www.w3.org/2000/svg" width="2.25rem" height="2.25rem" id="0kk6c0iss-ZLEZhBxQr9Ga-landing-page-2"><g clip-path="url(#id-0kk6c0iss-ZLEZhBxQr9Ga-landing-page-2-1)"><rect x="0.787109" y="0.365234" width="37.2697" height="37.2697" rx="18.6349" fill="#292841"></rect><ellipse cx="22.2018" cy="26.3069" rx="34.9573" ry="37.0865" transform="rotate(-8.87224 22.2018 26.3069)" fill="url(#id-0kk6c0iss-ZLEZhBxQr9Ga-landing-page-2-2)"></ellipse><g clip-path="url(#id-0kk6c0iss-ZLEZhBxQr9Ga-landing-page-2-5)"><path d="M13.6854 8.51073C12.8384 8.58739 12.0565 8.9974 11.5118 9.65054C10.9671 10.3037 10.7041 11.1465 10.7808 11.9935L25.1524 10.6926C25.9994 10.616 26.8422 10.8789 27.4953 11.4236C28.1485 11.9684 28.5585 12.7502 28.6351 13.5972L31.3173 36.8587C32.1643 36.7821 32.9462 36.3721 33.4909 35.7189C34.0356 35.0658 34.2986 34.223 34.2219 33.376L31.5397 10.1145C31.4631 9.26746 31.0531 8.48559 30.3999 7.94087C29.7468 7.39615 28.904 7.1332 28.057 7.20987L13.6854 8.51073Z" fill="url(#id-0kk6c0iss-ZLEZhBxQr9Ga-landing-page-2-3)"></path><path d="M20.4339 9.68676C21.2259 9.37668 22.1085 9.39388 22.8878 9.7346C23.667 10.0753 24.279 10.7116 24.5891 11.5036L11.1521 16.7649C10.3602 17.075 9.72385 17.687 9.38313 18.4662C9.04241 19.2455 9.0252 20.1282 9.33529 20.9201L17.3353 42.9267C16.5434 43.2368 15.6607 43.2196 14.8815 42.8789C14.1022 42.5381 13.4902 41.9018 13.1801 41.1099L5.1801 19.1033C4.87001 18.3113 4.88723 17.4287 5.22794 16.6494C5.56866 15.8702 6.20498 15.2582 6.99692 14.9481L20.4339 9.68676Z" fill="url(#id-0kk6c0iss-ZLEZhBxQr9Ga-landing-page-2-6)"></path><circle cx="20.3057" cy="22.5166" r="9.39747" fill="#253D71"></circle><path d="M30.7363 35.3943L16.7319 38.8746C15.9065 39.0797 15.0335 38.9486 14.3048 38.51C13.5761 38.0714 13.0515 37.3613 12.8464 36.5359L7.8193 16.3074C7.61418 15.482 7.74534 14.609 8.18393 13.8803C8.62252 13.1516 9.3326 12.627 10.158 12.4219L24.1623 8.9416C24.9877 8.73648 25.8608 8.86764 26.5894 9.30623C27.3181 9.74482 27.8427 10.4549 28.0478 11.2803L33.0749 31.5088C33.2801 32.3342 33.1489 33.2072 32.7103 33.9359C32.2717 34.6646 31.5616 35.1892 30.7363 35.3943ZM19.2685 32.4617L19.485 30.6071L21.0226 29.5476L19.1679 29.3311L18.1084 27.7936L17.892 29.6482L16.3544 30.7077L18.2091 30.9242L19.2685 32.4617ZM23.5417 29.8319L24.0327 25.4787L27.5967 23.0003L23.2871 22.4787L20.815 18.8602L20.3244 23.2149L16.7604 25.6933L21.07 26.215L23.5417 29.8319ZM16.1703 23.3188L16.4596 20.8464L18.509 19.4333L16.0365 19.144L14.6235 17.0946L14.3342 19.5671L12.2848 20.9801L14.7573 21.2694L16.1703 23.3188Z" fill="url(#id-0kk6c0iss-ZLEZhBxQr9Ga-landing-page-2-4)"></path></g></g><defs><radialGradient id="id-0kk6c0iss-ZLEZhBxQr9Ga-landing-page-2-2" cx="0" cy="0" r="1" gradientUnits="userSpaceOnUse" gradientTransform="translate(22.2018 26.3069) rotate(90) scale(37.0865 34.9573)"><stop stop-color="#A3BCFF"></stop><stop offset="0.154" stop-color="#6990FC"></stop><stop offset="0.929" stop-color="#0C1A30" stop-opacity="0.08"></stop></radialGradient><radialGradient id="id-0kk6c0iss-ZLEZhBxQr9Ga-landing-page-2-3" cx="0" cy="0" r="1" gradientUnits="userSpaceOnUse" gradientTransform="translate(30.6184 3.73112) rotate(108.106) scale(19.9146 42.799)"><stop offset="0.268251" stop-color="#FD57E2"></stop><stop offset="0.547665" stop-color="#4E7BF8"></stop><stop offset="0.981478" stop-color="#3F439F"></stop></radialGradient><radialGradient id="id-0kk6c0iss-ZLEZhBxQr9Ga-landing-page-2-6" cx="0" cy="0" r="1" gradientUnits="userSpaceOnUse" gradientTransform="translate(3.15054 12.9814) rotate(45.3389) scale(19.9146 42.799)"><stop offset="0.268251" stop-color="#FD57E2"></stop><stop offset="0.547665" stop-color="#4EC5F8"></stop><stop offset="0.981478" stop-color="#50EDB4"></stop></radialGradient><radialGradient id="id-0kk6c0iss-ZLEZhBxQr9Ga-landing-page-2-4" cx="0" cy="0" r="1" gradientUnits="userSpaceOnUse" gradientTransform="translate(25.2931 13.0328) rotate(93.7011) scale(24.1521 22.901)"><stop offset="0.005" stop-color="#95FFEC"></stop><stop offset="0.34" stop-color="#86C1FF"></stop><stop offset="0.655" stop-color="#7499FF"></stop><stop offset="1" stop-color="#535AFD"></stop></radialGradient><clipPath id="id-0kk6c0iss-ZLEZhBxQr9Ga-landing-page-2-1"><rect x="0.787109" y="0.365234" width="37.2697" height="37.2697" rx="18.6349" fill="white"></rect></clipPath><clipPath id="id-0kk6c0iss-ZLEZhBxQr9Ga-landing-page-2-5"><rect width="32.0674" height="32.0674" fill="white" transform="translate(2.77393 9.30078) rotate(-13.9562)"></rect></clipPath></defs></svg>